if (_typeface_js && _typeface_js.loadFace) _typeface_js.loadFace({"glyphs":{"S":{"x_min":48.609375,"x_max":787.5,"ha":836,"o":"m 48 155 l 48 341 l 315 341 l 315 250 l 348 218 l 487 218 l 519 248 l 519 344 l 488 373 l 204 373 l 48 529 l 48 816 l 204 972 l 631 972 l 787 816 l 787 625 l 519 625 l 519 722 l 488 752 l 344 752 l 315 722 l 315 623 l 345 593 l 631 593 l 787 437 l 787 155 l 631 0 l 204 0 l 48 155 m 211 23 l 625 23 l 763 161 l 763 433 l 626 569 l 340 569 l 293 618 l 293 727 l 340 776 l 494 776 l 543 727 l 543 648 l 763 648 l 763 811 l 626 948 l 209 948 l 72 811 l 72 534 l 209 397 l 494 397 l 543 350 l 543 244 l 493 195 l 341 195 l 293 244 l 293 318 l 72 318 l 72 161 l 211 23 m 102 181 l 102 288 l 262 288 l 262 225 l 322 165 l 513 165 l 573 226 l 573 365 l 512 427 l 231 427 l 102 556 l 102 790 l 230 918 l 605 918 l 734 787 l 734 677 l 573 677 l 573 744 l 512 806 l 322 806 l 262 747 l 262 600 l 322 540 l 605 540 l 734 409 l 734 181 l 608 54 l 229 54 l 102 181 "},"/":{"x_min":9.71875,"x_max":762.5,"ha":772,"o":"m 9 0 l 495 972 l 762 972 l 276 0 l 9 0 m 263 23 l 726 948 l 511 948 l 50 23 l 263 23 m 95 54 l 527 918 l 676 918 l 243 54 l 95 54 "},"K":{"x_min":9.71875,"x_max":909.71875,"ha":1007,"o":"m 9 0 l 9 218 l 68 218 l 68 752 l 9 752 l 9 972 l 393 972 l 393 752 l 334 752 l 334 615 l 472 752 l 448 752 l 448 972 l 909 972 l 909 752 l 829 752 l 565 488 l 836 218 l 909 218 l 909 0 l 448 0 l 448 218 l 475 218 l 380 312 l 336 268 l 336 218 l 394 218 l 394 0 l 9 0 m 370 23 l 370 195 l 311 195 l 311 273 l 380 343 l 527 195 l 472 195 l 472 23 l 884 23 l 884 195 l 826 195 l 533 488 l 820 776 l 886 776 l 886 948 l 472 948 l 472 776 l 527 776 l 311 559 l 311 776 l 369 776 l 369 948 l 33 948 l 33 776 l 90 776 l 90 195 l 33 195 l 33 23 l 370 23 m 63 54 l 63 165 l 120 165 l 120 806 l 63 806 l 63 918 l 340 918 l 340 806 l 281 806 l 281 484 l 604 806 l 501 806 l 501 918 l 855 918 l 855 806 l 797 806 l 476 486 l 797 165 l 855 165 l 855 54 l 501 54 l 501 165 l 605 165 l 381 390 l 281 288 l 281 165 l 341 165 l 341 54 l 63 54 "},"7":{"x_min":48.609375,"x_max":788.890625,"ha":838,"o":"m 48 695 l 48 972 l 788 972 l 788 784 l 498 0 l 218 0 l 497 752 l 266 752 l 266 695 l 48 695 m 244 718 l 244 776 l 530 776 l 251 23 l 476 23 l 765 790 l 765 948 l 72 948 l 72 718 l 244 718 m 102 748 l 102 918 l 734 918 l 734 806 l 458 58 l 297 58 l 573 806 l 213 806 l 213 748 l 102 748 "},"d":{"x_min":9.71875,"x_max":659.71875,"ha":708,"o":"m 9 0 l 9 112 l 68 112 l 68 752 l 9 752 l 9 865 l 531 865 l 659 737 l 659 127 l 531 0 l 9 0 m 438 112 l 500 170 l 500 693 l 438 752 l 227 752 l 227 112 l 438 112 "},",":{"x_min":9.71875,"x_max":258.328125,"ha":257,"o":"m 9 0 l 9 248 l 258 248 l 258 1 l 79 -177 q 79 0 79 -179 l 9 0 m 104 23 l 104 -122 l 233 6 l 233 223 l 33 223 l 33 23 l 104 23 m 63 54 l 63 194 l 204 194 l 204 25 l 134 -44 l 134 54 l 63 54 "},"Y":{"x_min":9.71875,"x_max":1075,"ha":1133,"o":"m 9 752 l 9 972 l 470 972 l 470 752 l 462 752 l 550 666 l 637 752 l 626 752 l 626 972 l 1075 972 l 1075 752 l 995 752 l 681 438 l 681 218 l 740 218 l 740 0 l 358 0 l 358 218 l 415 218 l 415 438 l 101 752 l 9 752 m 111 776 l 438 448 l 438 195 l 380 195 l 380 22 l 718 22 l 718 195 l 658 195 l 658 448 l 987 776 l 1051 776 l 1051 948 l 650 948 l 650 776 l 693 776 l 550 633 l 406 776 l 447 776 l 447 948 l 33 948 l 33 776 l 111 776 m 63 806 l 63 918 l 416 918 l 416 806 l 331 806 l 548 590 l 765 806 l 680 806 l 680 918 l 1022 918 l 1022 806 l 977 806 l 629 461 l 629 165 l 687 165 l 687 43 l 411 43 l 411 165 l 469 165 l 469 461 l 122 806 l 63 806 "},"E":{"x_min":29.171875,"x_max":743.0625,"ha":772,"o":"m 29 0 l 29 218 l 87 218 l 87 752 l 29 752 l 29 972 l 743 972 l 743 713 l 525 713 l 525 752 l 354 752 l 354 595 l 393 595 l 393 633 l 612 633 l 612 338 l 393 338 l 393 376 l 354 376 l 354 218 l 525 218 l 525 258 l 743 258 l 743 0 l 29 0 m 719 23 l 719 234 l 547 234 l 547 195 l 330 195 l 330 401 l 416 401 l 416 362 l 588 362 l 588 609 l 416 609 l 416 570 l 330 570 l 330 776 l 547 776 l 547 737 l 719 737 l 719 948 l 52 948 l 52 776 l 109 776 l 109 195 l 52 195 l 52 23 l 719 23 m 83 54 l 83 165 l 140 165 l 140 806 l 83 806 l 83 918 l 690 918 l 690 768 l 577 768 l 577 806 l 301 806 l 301 541 l 447 541 l 447 580 l 558 580 l 558 391 l 447 391 l 447 430 l 301 430 l 301 165 l 577 165 l 577 204 l 690 204 l 690 54 l 83 54 "},"y":{"x_min":9.71875,"x_max":870.828125,"ha":881,"o":"m 9 752 l 9 865 l 363 865 l 363 752 l 277 752 l 447 536 l 613 752 l 529 752 l 529 865 l 870 865 l 870 752 l 823 752 l 526 408 l 526 112 l 584 112 l 584 -9 l 309 -9 l 309 112 l 366 112 l 366 408 l 70 752 l 9 752 "},"\"":{"x_min":9.71875,"x_max":536.109375,"ha":610,"o":"m 258 972 l 258 723 l 83 548 l 83 723 l 9 723 l 9 972 l 258 972 m 34 947 l 34 747 l 106 747 l 106 604 l 234 731 l 234 947 l 34 947 m 204 918 l 204 747 l 136 679 l 136 777 l 63 777 l 63 918 l 204 918 m 536 972 l 536 723 l 361 548 l 361 723 l 287 723 l 287 972 l 536 972 m 312 947 l 312 747 l 384 747 l 384 604 l 512 731 l 512 947 l 312 947 m 481 918 l 481 745 l 413 677 l 413 777 l 341 777 l 341 918 l 481 918 "},"‹":{"x_min":122.21875,"x_max":341.671875,"ha":463,"o":"m 341 148 l 122 322 l 122 448 l 340 619 l 341 497 l 195 384 l 340 272 l 341 148 "},"„":{"x_min":73.609375,"x_max":588.890625,"ha":669,"o":"m 588 116 q 445 -163 588 -70 l 368 -83 q 456 50 456 -8 q 454 76 456 70 q 433 87 450 87 l 377 87 l 377 291 l 588 291 l 588 116 m 294 116 q 151 -163 294 -70 l 73 -83 q 162 50 162 -6 q 161 76 162 70 q 138 87 156 87 l 83 87 l 83 291 l 294 291 l 294 116 "},"g":{"x_min":48.609375,"x_max":677.78125,"ha":726,"o":"m 48 127 l 48 737 l 176 865 l 551 865 l 677 737 l 677 598 l 518 598 l 518 693 l 458 752 l 268 752 l 209 693 l 209 170 l 268 112 l 458 112 l 518 170 l 518 341 l 445 341 l 445 433 l 677 433 l 677 127 l 551 0 l 176 0 l 48 127 "},"–":{"x_min":104.171875,"x_max":862.5,"ha":967,"o":"m 104 383 l 104 588 l 862 588 l 862 383 l 104 383 "},"ƒ":{"x_min":-16.671875,"x_max":695.828125,"ha":772,"o":"m 695 1001 l 675 893 q 591 916 620 916 q 522 879 550 916 q 483 779 495 843 l 455 641 l 613 641 l 613 543 l 437 543 l 348 55 q 251 -194 319 -101 q 68 -287 183 -287 q -16 -269 15 -287 l 5 -156 q 79 -176 41 -176 q 179 -100 143 -176 q 213 31 197 -59 l 308 543 l 156 543 l 156 641 l 327 641 l 331 658 q 368 816 345 722 q 426 940 388 893 q 595 1023 491 1023 q 695 1001 643 1023 "},"e":{"x_min":9.71875,"x_max":616.671875,"ha":626,"o":"m 9 0 l 9 112 l 68 112 l 68 752 l 9 752 l 9 865 l 616 865 l 616 713 l 505 713 l 505 752 l 227 752 l 227 487 l 373 487 l 373 526 l 486 526 l 486 338 l 373 338 l 373 376 l 227 376 l 227 112 l 505 112 l 505 151 l 616 151 l 616 0 l 9 0 "},"J":{"x_min":9.71875,"x_max":733.328125,"ha":743,"o":"m 9 155 l 9 390 l 276 390 l 276 250 l 308 218 l 376 218 l 408 250 l 408 752 l 325 752 l 325 972 l 733 972 l 733 752 l 675 752 l 675 155 l 519 0 l 165 0 l 9 155 m 172 23 l 513 23 l 650 159 l 650 776 l 709 776 l 709 948 l 348 948 l 348 776 l 431 776 l 431 243 l 383 195 l 301 195 l 252 243 l 252 366 l 33 366 l 33 162 l 172 23 m 63 170 l 63 337 l 222 337 l 222 226 l 283 165 l 401 165 l 461 225 l 461 806 l 379 806 l 379 918 l 680 918 l 680 806 l 622 806 l 622 170 l 493 43 l 193 43 l 63 170 "},"|":{"x_min":22.21875,"x_max":290.28125,"ha":310,"o":"m 22 0 l 22 973 l 290 973 l 290 0 l 22 0 m 265 23 l 265 948 l 48 948 l 48 23 l 265 23 m 81 54 l 81 918 l 229 918 l 229 54 l 81 54 "},"‐":{"x_min":18.0625,"x_max":401.390625,"ha":392,"o":"m 18 376 l 18 595 l 401 595 l 401 376 l 18 376 m 377 401 l 377 572 l 40 572 l 40 401 l 377 401 m 72 430 l 72 543 l 348 543 l 348 430 l 72 430 "},"^":{"x_min":-31.9375,"x_max":777.78125,"ha":746,"o":"m 777 397 l 551 397 l 373 754 l 193 397 l -31 397 l 269 972 l 475 972 l 777 397 "},"q":{"x_min":48.609375,"x_max":759.71875,"ha":731,"o":"m 48 127 l 48 737 l 176 865 l 552 865 l 680 737 l 680 202 l 759 122 l 688 50 l 645 93 l 552 0 l 176 0 l 48 127 m 268 112 l 461 112 l 519 170 l 519 218 l 383 356 l 455 427 l 519 362 l 519 693 l 461 752 l 268 752 l 209 693 l 209 170 l 268 112 "},"b":{"x_min":9.71875,"x_max":659.71875,"ha":708,"o":"m 9 0 l 9 112 l 68 112 l 68 752 l 9 752 l 9 865 l 531 865 l 659 737 l 659 537 l 572 450 l 659 362 l 659 127 l 531 0 l 9 0 m 438 112 l 500 170 l 500 333 l 438 394 l 227 394 l 227 112 l 438 112 m 438 505 l 500 565 l 500 693 l 438 752 l 227 752 l 227 505 l 438 505 "},"D":{"x_min":9.71875,"x_max":766.671875,"ha":815,"o":"m 9 0 l 9 218 l 68 218 l 68 752 l 9 752 l 9 972 l 611 972 l 766 816 l 766 155 l 611 0 l 9 0 m 601 23 l 743 165 l 743 806 l 601 948 l 33 948 l 33 776 l 90 776 l 90 195 l 33 195 l 33 23 l 601 23 m 63 54 l 63 165 l 120 165 l 120 806 l 63 806 l 63 918 l 584 918 l 712 790 l 712 181 l 584 54 l 63 54 m 493 165 l 552 225 l 552 747 l 493 806 l 281 806 l 281 165 l 493 165 m 311 195 l 311 776 l 477 776 l 523 730 l 523 245 l 473 195 l 311 195 m 468 218 l 500 250 l 500 722 l 469 752 l 334 752 l 334 218 l 468 218 "},"z":{"x_min":9.71875,"x_max":629.171875,"ha":639,"o":"m 9 0 l 9 112 l 437 752 l 120 752 l 120 695 l 9 695 l 9 865 l 629 865 l 629 752 l 201 112 l 516 112 l 516 169 l 629 169 l 629 0 l 9 0 "},"w":{"x_min":9.71875,"x_max":1434.71875,"ha":1444,"o":"m 9 752 l 9 865 l 309 865 l 309 752 l 247 752 l 430 205 l 612 752 l 558 752 l 558 865 l 886 865 l 886 752 l 833 752 l 1015 205 l 1197 752 l 1143 752 l 1143 865 l 1434 865 l 1434 752 l 1368 752 l 1154 112 l 1212 112 l 1212 0 l 822 0 l 822 112 l 876 112 l 722 572 l 569 112 l 623 112 l 623 0 l 233 0 l 233 112 l 291 112 l 76 752 l 9 752 "},"$":{"x_min":66.671875,"x_max":806.953125,"ha":874,"o":"m 66 218 l 66 363 l 334 363 l 334 270 l 365 240 l 508 240 l 538 270 l 538 363 l 508 395 l 222 395 l 66 552 l 66 755 l 220 909 l 300 909 l 300 972 l 425 972 l 425 909 l 454 909 l 454 972 l 580 972 l 580 909 l 651 909 l 806 754 l 806 602 l 538 602 l 538 701 l 508 731 l 365 731 l 334 701 l 334 602 l 366 570 l 651 570 l 806 415 l 806 218 l 651 62 l 580 62 l 580 0 l 455 0 l 455 62 l 425 62 l 425 0 l 300 0 l 300 62 l 222 62 l 66 218 m 230 86 l 323 86 l 323 23 l 401 23 l 401 86 l 479 86 l 479 23 l 556 23 l 556 86 l 643 86 l 780 223 l 780 408 l 641 547 l 361 547 l 311 597 l 311 705 l 361 755 l 512 755 l 562 705 l 562 626 l 783 626 l 783 750 l 647 886 l 556 886 l 556 948 l 477 948 l 477 886 l 401 886 l 401 948 l 323 948 l 323 886 l 226 886 l 90 750 l 90 556 l 227 419 l 512 419 l 562 369 l 562 265 l 512 215 l 361 215 l 311 265 l 311 340 l 90 340 l 90 226 l 230 86 m 120 244 l 120 311 l 280 311 l 280 247 l 341 186 l 531 186 l 593 247 l 593 388 l 531 450 l 250 450 l 120 577 l 120 727 l 248 855 l 343 855 l 343 929 l 381 929 l 381 855 l 498 855 l 498 929 l 537 929 l 537 855 l 625 855 l 752 727 l 752 656 l 593 656 l 593 725 l 531 786 l 341 786 l 280 725 l 280 577 l 341 518 l 623 518 l 752 390 l 752 244 l 625 116 l 537 116 l 537 43 l 498 43 l 498 116 l 381 116 l 381 43 l 343 43 l 343 116 l 250 116 l 120 244 "},"™":{"x_min":23.609375,"x_max":890.28125,"ha":922,"o":"m 23 894 l 23 979 l 380 979 l 380 894 l 325 894 l 325 923 l 243 923 l 243 602 l 272 602 l 272 547 l 133 547 l 133 602 l 162 602 l 162 923 l 79 923 l 79 894 l 23 894 m 406 547 l 406 602 l 436 602 l 436 923 l 406 923 l 406 979 l 515 979 l 648 756 l 781 979 l 890 979 l 890 923 l 861 923 l 861 602 l 890 602 l 890 547 l 752 547 l 752 602 l 780 602 l 780 847 l 648 626 l 515 847 l 515 602 l 544 602 l 544 547 l 406 547 "},"\\":{"x_min":9.71875,"x_max":762.5,"ha":772,"o":"m 762 0 l 276 972 l 9 972 l 495 0 l 762 0 m 515 23 l 50 948 l 256 948 l 722 23 l 515 23 m 676 54 l 244 918 l 95 918 l 529 54 l 676 54 "},"’":{"x_min":9.71875,"x_max":258.328125,"ha":267,"o":"m 258 972 l 258 723 l 83 547 l 83 723 l 9 723 l 9 972 l 258 972 m 34 947 l 34 747 l 106 747 l 106 601 l 234 729 l 234 947 l 34 947 m 204 918 l 204 748 l 136 679 l 136 777 l 63 777 l 63 918 l 204 918 "},"~":{"x_min":43.0625,"x_max":827.78125,"ha":871,"o":"m 827 383 q 733 256 788 311 q 590 181 658 181 q 416 253 529 181 q 277 325 304 325 q 162 222 218 325 l 43 341 q 137 468 81 416 q 276 530 205 530 q 439 459 333 530 q 584 388 545 388 q 702 511 637 388 l 827 383 "},"-":{"x_min":18.0625,"x_max":401.390625,"ha":392,"o":"m 18 376 l 18 595 l 401 595 l 401 376 l 18 376 m 377 401 l 377 572 l 40 572 l 40 401 l 377 401 m 72 430 l 72 543 l 348 543 l 348 430 l 72 430 "},"Q":{"x_min":48.609375,"x_max":890.28125,"ha":836,"o":"m 48 155 l 48 816 l 204 972 l 631 972 l 787 816 l 787 277 l 890 175 l 743 27 l 701 69 l 631 0 l 204 0 l 48 155 m 208 25 l 626 25 l 701 101 l 741 61 l 856 175 l 761 270 l 761 808 l 623 945 l 212 945 l 72 805 l 72 161 l 208 25 m 102 181 l 102 790 l 230 918 l 606 918 l 734 790 l 734 252 l 812 175 l 741 104 l 698 147 l 605 54 l 230 54 l 102 181 m 322 165 l 512 165 l 573 226 l 573 270 l 434 409 l 506 483 l 573 415 l 573 747 l 513 806 l 322 806 l 262 747 l 262 225 l 322 165 m 290 247 l 290 730 l 337 777 l 495 777 l 544 729 l 544 494 l 509 529 l 390 409 l 543 256 l 543 244 l 494 195 l 341 195 l 290 247 m 347 218 l 488 218 l 520 251 l 361 411 l 508 556 l 519 545 l 519 722 l 488 752 l 345 752 l 315 722 l 315 250 l 347 218 "},"M":{"x_min":9.71875,"x_max":1084.71875,"ha":1142,"o":"m 9 0 l 9 218 l 68 218 l 68 752 l 9 752 l 9 972 l 320 972 l 547 595 l 772 972 l 1084 972 l 1084 752 l 1026 752 l 1026 218 l 1084 218 l 1084 0 l 701 0 l 701 218 l 758 218 l 758 470 l 547 119 l 334 470 l 334 218 l 393 218 l 393 0 l 9 0 m 369 23 l 369 195 l 311 195 l 311 547 l 547 151 l 781 561 l 781 195 l 723 195 l 723 23 l 1061 23 l 1061 195 l 1002 195 l 1002 776 l 1061 776 l 1061 948 l 777 948 l 547 562 l 315 948 l 33 948 l 33 776 l 90 776 l 90 195 l 33 195 l 33 23 l 369 23 m 63 54 l 63 165 l 120 165 l 120 806 l 63 806 l 63 918 l 279 918 l 547 473 l 813 918 l 1031 918 l 1031 806 l 972 806 l 972 165 l 1031 165 l 1031 54 l 754 54 l 754 165 l 812 165 l 812 654 l 547 211 l 281 654 l 281 165 l 340 165 l 340 54 l 63 54 "},"C":{"x_min":48.609375,"x_max":787.5,"ha":836,"o":"m 48 155 l 48 816 l 204 972 l 631 972 l 787 816 l 787 600 l 519 600 l 519 722 l 488 752 l 345 752 l 315 722 l 315 250 l 347 218 l 488 218 l 519 248 l 519 365 l 787 365 l 787 155 l 631 0 l 204 0 l 48 155 m 213 23 l 626 23 l 763 161 l 763 343 l 543 343 l 543 244 l 494 195 l 341 195 l 293 244 l 293 727 l 341 776 l 494 776 l 543 727 l 543 620 l 763 620 l 763 811 l 625 950 l 209 950 l 72 811 l 72 165 l 213 23 m 102 181 l 102 790 l 230 918 l 606 918 l 734 790 l 734 652 l 573 652 l 573 745 l 512 806 l 322 806 l 262 747 l 262 225 l 322 165 l 512 165 l 573 226 l 573 313 l 737 313 l 737 181 l 609 54 l 230 54 l 102 181 "},"[":{"x_min":19.4375,"x_max":388.890625,"ha":401,"o":"m 258 119 l 388 119 l 388 -98 l 19 -98 l 19 1077 l 388 1077 l 388 859 l 258 859 l 258 119 m 43 -72 l 365 -72 l 365 94 l 234 94 l 233 884 l 365 884 l 365 1052 l 43 1052 l 43 -72 m 205 66 l 334 66 l 334 -44 l 72 -44 l 72 1023 l 334 1023 l 334 912 l 205 912 l 205 66 "},"L":{"x_min":29.171875,"x_max":748.609375,"ha":817,"o":"m 29 0 l 29 218 l 87 218 l 87 752 l 29 752 l 29 972 l 412 972 l 412 752 l 354 752 l 354 218 l 529 218 l 529 276 l 748 276 l 748 0 l 29 0 m 725 23 l 725 251 l 552 251 l 552 194 l 329 194 l 329 776 l 388 776 l 388 948 l 52 948 l 52 776 l 111 776 l 111 195 l 54 195 l 54 23 l 725 23 m 83 54 l 83 165 l 140 165 l 140 806 l 83 806 l 83 918 l 359 918 l 359 806 l 301 806 l 301 165 l 581 165 l 581 223 l 694 223 l 694 54 l 83 54 "},"!":{"x_min":48.609375,"x_max":316.671875,"ha":364,"o":"m 48 291 l 48 972 l 316 972 l 316 291 l 48 291 m 48 0 l 48 219 l 316 219 l 316 0 l 48 0 m 293 315 l 293 948 l 72 948 l 72 315 l 293 315 m 293 23 l 293 195 l 72 195 l 72 23 l 293 23 m 102 54 l 102 165 l 262 165 l 262 54 l 102 54 m 102 345 l 102 918 l 262 918 l 262 345 l 102 345 "}," ":{"x_min":0,"x_max":0,"ha":392},"{":{"x_min":13.890625,"x_max":459.71875,"ha":476,"o":"m 406 -45 l 406 70 l 330 70 q 286 90 295 70 q 279 131 279 101 l 279 369 q 183 491 279 479 l 183 493 q 279 602 279 506 l 279 844 q 330 905 279 905 l 406 905 l 406 1022 l 270 1022 q 193 984 231 1022 q 145 862 145 937 l 145 601 q 68 545 145 545 l 68 438 q 115 433 104 438 q 145 373 145 420 l 145 111 q 193 -8 145 37 q 270 -45 231 -45 l 406 -45 m 19 384 l 13 384 l 13 600 l 19 600 l 91 598 l 91 861 q 155 1022 91 959 q 270 1075 209 1075 l 459 1075 l 459 852 l 333 852 l 331 602 q 295 493 331 534 q 331 369 331 448 l 331 131 q 333 123 331 123 l 459 123 l 459 -98 l 270 -98 q 155 -47 209 -98 q 91 111 91 15 l 91 384 q 19 384 91 384 m 330 876 l 436 876 l 436 1051 l 270 1051 q 169 1008 213 1051 q 116 863 116 955 l 116 583 q 37 576 111 575 l 37 408 l 101 408 q 115 384 116 406 l 115 380 q 115 375 115 377 q 115 111 115 372 q 169 -33 115 19 q 270 -75 213 -75 l 436 -75 l 436 100 l 334 100 q 308 131 308 100 l 308 369 q 269 493 308 448 q 308 602 308 536 l 308 851 q 315 867 311 858 q 330 876 319 876 "},"X":{"x_min":9.71875,"x_max":1075,"ha":1085,"o":"m 9 0 l 9 218 l 98 218 l 368 486 l 100 752 l 9 752 l 9 972 l 470 972 l 470 752 l 462 752 l 550 666 l 636 752 l 626 752 l 626 972 l 1075 972 l 1075 752 l 1000 752 l 730 486 l 1000 218 l 1075 218 l 1075 0 l 626 0 l 626 218 l 637 218 l 550 305 l 462 218 l 470 218 l 470 0 l 9 0 m 447 23 l 447 195 l 415 195 l 550 333 l 687 195 l 650 195 l 650 23 l 1051 23 l 1051 195 l 990 195 l 701 486 l 993 776 l 1051 776 l 1051 948 l 650 948 l 650 776 l 687 776 l 550 638 l 411 776 l 447 776 l 447 948 l 33 948 l 33 776 l 105 776 l 395 486 l 106 195 l 33 195 l 33 23 l 447 23 m 63 54 l 63 165 l 123 165 l 444 486 l 122 806 l 63 806 l 63 918 l 416 918 l 416 806 l 331 806 l 548 590 l 765 806 l 680 806 l 680 918 l 1022 918 l 1022 806 l 973 806 l 654 486 l 972 165 l 1022 165 l 1022 54 l 680 54 l 680 165 l 765 165 l 548 383 l 331 165 l 416 165 l 416 54 l 63 54 "},"P":{"x_min":9.71875,"x_max":766.671875,"ha":835,"o":"m 9 0 l 9 218 l 68 218 l 68 752 l 9 752 l 9 972 l 611 972 l 766 816 l 766 523 l 611 368 l 334 368 l 334 218 l 393 218 l 393 0 l 9 0 m 369 23 l 369 195 l 311 195 l 311 391 l 604 391 l 743 531 l 743 808 l 601 950 l 33 950 l 33 776 l 90 776 l 90 195 l 33 195 l 33 23 l 369 23 m 63 54 l 63 165 l 120 165 l 120 806 l 63 806 l 63 918 l 584 918 l 712 790 l 712 550 l 584 420 l 281 420 l 281 165 l 340 165 l 340 54 l 63 54 m 491 533 l 552 594 l 552 747 l 493 806 l 281 806 l 281 533 l 491 533 m 311 563 l 311 776 l 475 776 l 523 727 l 523 613 l 475 563 l 311 563 m 469 587 l 500 618 l 500 722 l 469 752 l 334 752 l 334 587 l 469 587 "},"%":{"x_min":48.609375,"x_max":1356.953125,"ha":1406,"o":"m 48 397 l 48 873 l 145 970 l 440 970 l 537 873 l 537 397 l 440 300 l 145 300 l 48 397 m 391 0 l 877 972 l 1009 972 l 523 0 l 391 0 m 151 323 l 434 323 l 513 402 l 513 868 l 434 947 l 151 947 l 72 868 l 72 402 l 151 323 m 511 23 l 973 948 l 890 948 l 429 23 l 511 23 m 150 430 l 150 841 l 219 911 l 369 911 l 436 844 l 436 430 l 365 359 l 220 359 l 150 430 m 477 54 l 911 918 l 922 918 l 490 54 l 477 54 m 223 383 l 362 383 l 412 433 l 412 838 l 363 887 l 223 887 l 173 837 l 173 433 l 223 383 m 868 102 l 868 575 l 966 675 l 1259 675 l 1356 576 l 1356 100 l 1261 4 l 966 4 l 868 102 m 970 27 l 1254 27 l 1333 106 l 1333 572 l 1254 651 l 970 651 l 891 572 l 891 106 l 970 27 m 969 134 l 969 544 l 1038 613 l 1188 613 l 1254 548 l 1254 134 l 1183 63 l 1040 63 l 969 134 m 1044 87 l 1180 87 l 1231 137 l 1231 543 l 1183 591 l 1043 591 l 993 541 l 993 137 l 1044 87 "},"#":{"x_min":16.671875,"x_max":765.28125,"ha":786,"o":"m 765 716 l 726 536 l 588 536 l 565 420 l 701 420 l 665 241 l 526 241 l 473 -1 l 293 -1 l 344 241 l 334 241 l 283 -1 l 102 -1 l 152 241 l 16 241 l 51 420 l 191 420 l 216 536 l 76 536 l 115 716 l 255 716 l 304 958 l 486 958 l 436 716 l 444 716 l 497 958 l 679 958 l 626 716 l 765 716 m 734 693 l 601 693 l 652 934 l 513 934 l 462 693 l 412 693 l 461 934 l 320 934 l 270 693 l 137 693 l 108 559 l 241 559 l 211 397 l 73 397 l 45 265 l 179 265 l 127 22 l 268 22 l 318 265 l 370 265 l 318 22 l 452 22 l 504 265 l 645 265 l 675 397 l 536 397 l 572 559 l 705 559 l 734 693 m 708 669 l 688 583 l 551 583 l 506 375 l 644 375 l 627 288 l 488 288 l 436 45 l 350 45 l 401 288 l 297 288 l 245 45 l 159 45 l 209 288 l 72 288 l 90 375 l 230 375 l 273 583 l 134 583 l 152 669 l 293 669 l 343 912 l 429 912 l 379 669 l 481 669 l 534 912 l 620 912 l 569 669 l 708 669 m 465 583 l 359 583 l 316 375 l 420 375 l 465 583 m 373 420 l 383 420 l 406 536 l 397 536 l 373 420 m 343 397 l 376 559 l 436 559 l 401 397 l 343 397 "},"_":{"x_min":-6.9375,"x_max":604.171875,"ha":604,"o":"m 604 -277 l -6 -277 l -6 -194 l 604 -194 l 604 -277 "},"+":{"x_min":18.0625,"x_max":665.28125,"ha":682,"o":"m 451 162 l 231 162 l 231 377 l 18 377 l 18 595 l 231 595 l 231 809 l 451 809 l 451 595 l 665 595 l 665 377 l 451 377 l 451 162 m 426 786 l 255 786 l 255 572 l 40 572 l 40 401 l 255 401 l 255 184 l 426 184 l 426 401 l 641 401 l 641 572 l 426 572 l 426 786 m 397 216 l 397 430 l 612 430 l 612 543 l 397 543 l 397 756 l 284 756 l 284 543 l 72 543 l 72 430 l 284 430 l 284 216 l 397 216 "},"‚":{"x_min":73.609375,"x_max":294.4375,"ha":378,"o":"m 294 116 q 151 -163 294 -70 l 73 -83 q 162 50 162 -6 q 161 76 162 70 q 138 87 156 87 l 83 87 l 83 291 l 294 291 l 294 116 "},")":{"x_min":13.890625,"x_max":447.21875,"ha":510,"o":"m 129 1098 l 13 1019 q 50 955 37 979 q 132 759 113 829 q 158 550 151 688 q 159 484 159 518 q 158 419 159 451 q 132 211 151 281 q 50 15 113 141 q 13 -50 33 -18 l 130 -130 q 197 -69 152 -111 q 394 201 338 77 q 447 484 447 320 q 393 770 447 648 q 197 1038 338 891 q 129 1098 175 1058 m 175 1026 q 368 768 311 890 q 425 484 425 645 q 380 211 425 318 q 200 -36 331 95 q 130 -104 176 -61 l 41 -40 q 75 15 52 -22 q 157 218 140 152 q 181 419 175 283 q 184 550 186 512 q 159 757 177 687 q 77 951 140 827 q 43 1011 63 979 l 129 1069 q 175 1026 141 1058 m 127 1029 l 80 995 q 109 941 90 980 q 187 755 169 825 q 212 551 205 686 q 212 413 215 481 q 145 93 202 212 q 80 -18 126 52 l 127 -59 q 169 -23 144 -45 q 394 480 394 179 q 388 584 394 530 q 169 994 362 819 q 127 1029 144 1016 "},"'":{"x_min":9.71875,"x_max":258.328125,"ha":267,"o":"m 258 972 l 258 723 l 83 548 l 83 723 l 9 723 l 9 972 l 258 972 m 34 947 l 34 747 l 106 747 l 106 601 l 234 729 l 234 947 l 34 947 m 204 918 l 204 747 l 136 679 l 136 777 l 63 777 l 63 918 l 204 918 "},"}":{"x_min":13.890625,"x_max":459.71875,"ha":476,"o":"m 68 -45 l 68 70 l 144 70 q 188 90 177 70 q 195 131 195 101 l 195 369 q 290 491 195 479 l 290 493 q 195 602 195 506 l 195 844 q 144 905 195 905 l 68 905 l 68 1022 l 202 1022 q 280 984 243 1022 q 329 862 329 937 l 329 601 q 406 545 329 545 l 406 438 q 359 433 370 438 q 329 373 329 419 l 329 111 q 280 -8 329 37 q 202 -45 243 -45 l 68 -45 m 455 384 l 459 384 l 459 600 l 455 600 l 383 598 l 381 861 q 318 1022 381 959 q 202 1075 263 1075 l 13 1075 l 13 852 l 141 852 l 141 602 q 177 493 141 534 q 141 369 141 448 l 141 131 q 141 123 141 123 l 13 123 l 13 -98 l 202 -98 q 318 -47 263 -98 q 381 111 381 15 l 381 384 q 455 384 383 384 m 144 876 l 37 876 l 37 1051 l 202 1051 q 304 1008 259 1051 q 356 863 356 955 l 356 593 q 373 576 354 579 q 436 576 381 575 l 436 408 l 373 408 q 358 384 356 406 l 359 380 q 358 373 358 377 q 358 111 358 372 q 304 -33 358 19 q 202 -75 259 -75 l 37 -75 l 37 100 l 140 100 q 165 131 165 100 l 165 369 q 204 493 165 448 q 165 602 165 536 l 165 851 q 158 867 162 858 q 144 876 154 876 "},"‰":{"x_min":48.609375,"x_max":1884.71875,"ha":1921,"o":"m 48 397 l 48 873 l 144 970 l 441 970 l 537 873 l 537 395 l 441 300 l 145 300 l 48 397 m 391 0 l 877 972 l 1009 972 l 523 0 l 391 0 m 151 323 l 434 323 l 513 404 l 513 868 l 434 947 l 151 947 l 72 868 l 72 404 l 151 323 m 511 18 l 979 954 l 890 954 l 422 18 l 511 18 m 150 429 l 150 841 l 219 911 l 366 911 l 436 841 l 436 430 l 365 359 l 220 359 l 150 429 m 477 54 l 911 918 l 922 918 l 490 54 l 477 54 m 223 384 l 361 384 l 412 436 l 412 837 l 362 887 l 223 887 l 173 838 l 175 433 l 223 384 m 868 101 l 868 577 l 963 675 l 1259 675 l 1356 576 l 1356 101 l 1259 4 l 965 4 l 868 101 m 969 27 l 1255 27 l 1333 106 l 1333 570 l 1254 651 l 969 651 l 891 572 l 891 106 l 969 27 m 969 134 l 969 545 l 1038 615 l 1186 615 l 1255 545 l 1255 137 l 1200 83 l 1022 83 l 969 134 m 1030 105 l 1194 105 l 1231 141 l 1231 540 l 1180 591 l 1043 591 l 993 543 l 993 141 l 1030 105 m 1395 101 l 1395 577 l 1491 675 l 1787 675 l 1884 576 l 1884 101 l 1787 4 l 1493 4 l 1395 101 m 1498 27 l 1783 27 l 1861 106 l 1861 570 l 1781 651 l 1498 651 l 1419 572 l 1419 106 l 1498 27 m 1497 134 l 1497 547 l 1566 615 l 1716 615 l 1783 548 l 1783 134 l 1712 63 l 1569 63 l 1497 134 m 1572 88 l 1708 88 l 1758 138 l 1758 541 l 1709 590 l 1572 590 l 1522 540 l 1522 138 l 1572 88 "},"a":{"x_min":9.71875,"x_max":800,"ha":808,"o":"m 9 0 l 9 112 l 51 112 l 265 752 l 202 752 l 202 865 l 612 865 l 612 752 l 544 752 l 756 112 l 800 112 l 800 0 l 533 0 l 533 112 l 587 112 l 536 263 l 270 263 l 220 112 l 275 112 l 275 0 l 9 0 m 509 343 l 404 661 l 298 343 l 509 343 "},"T":{"x_min":19.4375,"x_max":840.28125,"ha":899,"o":"m 19 695 l 19 972 l 840 972 l 840 695 l 620 695 l 620 752 l 563 752 l 563 218 l 620 218 l 620 0 l 237 0 l 237 218 l 295 218 l 295 752 l 237 752 l 237 695 l 19 695 m 213 718 l 213 776 l 319 776 l 319 195 l 261 195 l 261 23 l 598 23 l 598 195 l 540 195 l 540 776 l 645 776 l 645 718 l 816 718 l 816 948 l 43 948 l 43 718 l 213 718 m 73 748 l 73 918 l 787 918 l 787 748 l 675 748 l 675 806 l 511 806 l 511 165 l 568 165 l 568 54 l 291 54 l 291 165 l 350 165 l 350 806 l 183 806 l 183 748 l 73 748 "},"—":{"x_min":23.609375,"x_max":555.5625,"ha":579,"o":"m 23 97 l 23 341 l 555 341 l 555 97 l 23 97 "},"=":{"x_min":18.0625,"x_max":665.28125,"ha":682,"o":"m 18 223 l 18 443 l 665 443 l 665 223 l 18 223 m 641 248 l 641 419 l 40 419 l 40 248 l 641 248 m 72 277 l 72 390 l 612 390 l 612 277 l 72 277 m 18 529 l 18 748 l 665 748 l 665 529 l 18 529 m 641 554 l 641 725 l 40 725 l 40 554 l 641 554 m 72 583 l 72 695 l 612 695 l 612 583 l 72 583 "},"N":{"x_min":9.71875,"x_max":918.0625,"ha":957,"o":"m 9 0 l 9 218 l 68 218 l 68 752 l 9 752 l 9 972 l 325 972 l 593 526 l 593 752 l 534 752 l 534 972 l 918 972 l 918 752 l 859 752 l 859 218 l 918 218 l 918 0 l 597 0 l 334 434 l 334 218 l 393 218 l 393 0 l 9 0 m 369 22 l 369 195 l 311 195 l 311 518 l 608 22 l 894 22 l 894 195 l 836 195 l 836 776 l 894 776 l 894 948 l 558 948 l 558 776 l 616 776 l 616 444 l 313 948 l 33 948 l 33 776 l 90 776 l 90 195 l 33 195 l 33 22 l 369 22 m 63 54 l 63 165 l 120 165 l 120 806 l 63 806 l 63 918 l 287 918 l 647 320 l 647 806 l 587 806 l 587 918 l 865 918 l 865 806 l 805 806 l 805 165 l 865 165 l 865 54 l 633 54 l 281 640 l 281 165 l 340 165 l 340 54 l 63 54 "},"⁄":{"x_min":-45.828125,"x_max":704.171875,"ha":686,"o":"m 704 972 l 79 0 l -45 0 l 581 972 l 704 972 "},"2":{"x_min":48.609375,"x_max":787.5,"ha":836,"o":"m 48 0 l 48 226 l 519 658 l 519 720 l 487 752 l 347 752 l 315 720 l 315 623 l 48 623 l 48 816 l 204 972 l 631 972 l 787 816 l 787 559 l 479 251 l 787 251 l 787 0 l 48 0 m 765 23 l 765 227 l 427 227 l 763 563 l 763 811 l 626 948 l 212 948 l 72 808 l 72 647 l 293 647 l 293 727 l 338 773 l 498 773 l 543 729 l 543 655 l 76 222 l 76 23 l 765 23 m 102 54 l 102 204 l 573 637 l 573 747 l 513 806 l 322 806 l 262 747 l 262 677 l 102 677 l 102 788 l 230 918 l 606 918 l 734 790 l 734 580 l 352 198 l 734 198 l 734 54 l 102 54 "},"j":{"x_min":9.71875,"x_max":626.390625,"ha":636,"o":"m 9 119 l 9 283 l 169 283 l 169 170 l 229 112 l 348 112 l 408 170 l 408 752 l 325 752 l 325 865 l 626 865 l 626 752 l 568 752 l 568 119 l 440 -9 l 137 -9 l 9 119 "},"Z":{"x_min":9.71875,"x_max":736.109375,"ha":785,"o":"m 9 0 l 9 184 l 388 752 l 227 752 l 227 695 l 9 695 l 9 972 l 736 972 l 736 787 l 356 218 l 516 218 l 516 276 l 736 276 l 736 0 l 9 0 m 712 23 l 712 252 l 540 252 l 540 195 l 323 195 l 712 793 l 712 948 l 33 948 l 33 718 l 204 718 l 204 776 l 422 776 l 33 179 l 33 23 l 712 23 m 63 54 l 63 165 l 490 806 l 173 806 l 173 748 l 63 748 l 63 918 l 681 918 l 681 806 l 254 165 l 569 165 l 569 223 l 681 223 l 681 54 l 63 54 "},"u":{"x_min":9.71875,"x_max":756.953125,"ha":767,"o":"m 9 752 l 9 865 l 286 865 l 286 752 l 227 752 l 227 170 l 288 112 l 479 112 l 538 170 l 538 752 l 480 752 l 480 865 l 756 865 l 756 752 l 700 752 l 700 127 l 570 0 l 195 0 l 68 127 l 68 752 l 9 752 "},"1":{"x_min":175,"x_max":661.109375,"ha":838,"o":"m 175 0 l 175 218 l 297 218 l 297 637 l 175 637 l 175 791 l 355 972 l 563 972 l 563 218 l 661 218 l 661 0 l 175 0 m 638 23 l 638 195 l 541 195 l 541 948 l 359 948 l 198 787 l 198 661 l 320 661 l 320 195 l 198 195 l 198 23 l 638 23 m 229 54 l 229 165 l 351 165 l 351 690 l 229 690 l 229 768 l 379 918 l 509 918 l 509 165 l 606 165 l 606 54 l 229 54 "},"›":{"x_min":122.21875,"x_max":341.671875,"ha":463,"o":"m 341 320 l 122 148 l 122 272 l 268 384 l 122 497 l 122 620 l 341 448 l 341 320 "},"k":{"x_min":9.71875,"x_max":801.390625,"ha":811,"o":"m 9 0 l 9 112 l 68 112 l 68 752 l 9 752 l 9 865 l 286 865 l 286 752 l 227 752 l 227 430 l 551 752 l 448 752 l 448 865 l 801 865 l 801 752 l 744 752 l 423 431 l 744 112 l 801 112 l 801 0 l 448 0 l 448 112 l 552 112 l 326 336 l 227 237 l 227 112 l 287 112 l 287 0 l 9 0 "},"<":{"x_min":16.671875,"x_max":748.609375,"ha":778,"o":"m 679 173 l 298 440 l 679 704 l 613 795 l 104 438 l 613 81 l 679 173 m 16 437 l 626 866 l 748 691 l 386 438 l 748 186 l 626 12 l 16 437 m 50 438 l 620 44 l 718 181 l 351 440 l 719 695 l 620 834 l 50 438 "},"t":{"x_min":9.71875,"x_max":723.609375,"ha":733,"o":"m 9 695 l 9 865 l 723 865 l 723 695 l 611 695 l 611 752 l 447 752 l 447 112 l 505 112 l 505 0 l 227 0 l 227 112 l 286 112 l 286 752 l 120 752 l 120 695 l 9 695 "},"W":{"x_min":9.71875,"x_max":1541.671875,"ha":1631,"o":"m 9 752 l 9 972 l 415 972 l 415 752 l 376 752 l 484 427 l 590 752 l 558 752 l 558 972 l 994 972 l 994 752 l 962 752 l 1069 431 l 1176 752 l 1143 752 l 1143 972 l 1541 972 l 1541 752 l 1465 752 l 1287 218 l 1319 218 l 1319 0 l 822 0 l 822 218 l 854 218 l 776 438 l 698 218 l 730 218 l 730 0 l 233 0 l 233 218 l 265 218 l 87 752 l 9 752 m 98 776 l 297 195 l 256 195 l 256 23 l 706 23 l 706 195 l 670 195 l 776 487 l 881 195 l 845 195 l 845 23 l 1295 23 l 1295 195 l 1255 195 l 1454 776 l 1518 776 l 1518 948 l 1166 948 l 1166 776 l 1204 776 l 1069 369 l 933 776 l 969 776 l 969 948 l 581 948 l 581 776 l 619 776 l 483 369 l 348 776 l 393 776 l 393 948 l 33 948 l 33 776 l 98 776 m 63 806 l 63 918 l 362 918 l 362 806 l 301 806 l 483 259 l 666 806 l 611 806 l 611 918 l 940 918 l 940 806 l 886 806 l 1069 259 l 1251 806 l 1197 806 l 1197 918 l 1488 918 l 1488 806 l 1422 806 l 1208 165 l 1266 165 l 1266 54 l 876 54 l 876 165 l 930 165 l 776 626 l 622 165 l 677 165 l 677 54 l 286 54 l 286 165 l 344 165 l 130 806 l 63 806 "},"Ω":{"x_min":48.609375,"x_max":1062.5,"ha":1110,"o":"m 1062 0 l 637 0 l 659 219 q 768 286 731 248 q 863 579 863 383 q 793 838 863 744 q 554 947 712 947 q 319 837 400 947 q 247 580 247 740 q 347 283 247 383 q 454 219 384 245 l 476 0 l 48 0 l 48 233 l 73 233 q 87 188 81 200 q 116 155 98 161 q 266 144 152 141 l 394 147 l 391 186 q 209 276 268 223 q 77 575 77 394 q 223 886 77 769 q 556 994 358 994 q 888 886 754 994 q 1034 576 1034 769 q 987 383 1034 475 q 852 240 937 287 q 722 186 797 209 l 719 147 q 784 145 741 147 q 850 144 827 144 q 995 154 970 144 q 1036 216 1025 173 l 1040 233 l 1062 233 l 1062 0 "},"v":{"x_min":9.71875,"x_max":848.609375,"ha":857,"o":"m 9 752 l 9 865 l 294 865 l 294 752 l 240 752 l 423 204 l 606 752 l 552 752 l 552 865 l 848 865 l 848 752 l 777 752 l 562 112 l 631 112 l 631 0 l 222 0 l 222 112 l 284 112 l 70 752 l 9 752 "},">":{"x_min":26.390625,"x_max":758.328125,"ha":778,"o":"m 95 173 l 475 440 l 95 704 l 159 795 l 670 438 l 159 81 l 95 173 m 758 437 l 148 866 l 26 691 l 388 438 l 26 186 l 147 12 l 758 437 m 725 438 l 152 44 l 55 181 l 423 440 l 54 695 l 152 834 l 725 438 "},"s":{"x_min":48.609375,"x_max":680.5625,"ha":729,"o":"m 48 127 l 48 234 l 209 234 l 209 170 l 268 112 l 461 112 l 519 170 l 519 315 l 461 373 l 176 373 l 48 502 l 48 737 l 176 865 l 552 865 l 680 737 l 680 625 l 519 625 l 519 693 l 461 752 l 268 752 l 209 693 l 209 547 l 268 486 l 552 486 l 680 358 l 680 127 l 552 0 l 176 0 l 48 127 "},"B":{"x_min":9.71875,"x_max":766.671875,"ha":815,"o":"m 9 0 l 9 218 l 68 218 l 68 752 l 9 752 l 9 972 l 611 972 l 766 816 l 766 566 l 702 502 l 766 438 l 766 155 l 611 0 l 9 0 m 601 23 l 743 165 l 743 429 l 670 501 l 743 573 l 743 806 l 601 948 l 33 948 l 33 776 l 90 776 l 90 195 l 33 195 l 33 23 l 601 23 m 63 54 l 63 165 l 120 165 l 120 806 l 63 806 l 63 918 l 584 918 l 712 790 l 712 591 l 625 504 l 712 416 l 712 181 l 584 54 l 63 54 m 493 165 l 552 225 l 552 387 l 493 447 l 281 447 l 281 165 l 493 165 m 493 558 l 552 618 l 552 747 l 493 806 l 281 806 l 281 558 l 493 558 m 311 195 l 311 418 l 473 418 l 523 368 l 523 245 l 473 195 l 311 195 m 311 588 l 311 776 l 473 776 l 523 726 l 523 638 l 473 588 l 311 588 m 468 612 l 500 644 l 500 720 l 468 752 l 334 752 l 334 612 l 468 612 m 468 218 l 500 250 l 500 362 l 468 394 l 334 394 l 334 218 l 468 218 "},"…":{"x_min":100,"x_max":1390.28125,"ha":1500,"o":"m 1390 129 q 1348 26 1390 68 q 1245 -15 1306 -15 q 1141 25 1183 -15 q 1100 129 1100 66 q 1141 234 1100 191 q 1245 277 1183 277 q 1349 234 1308 277 q 1390 129 1390 191 m 890 129 q 848 26 890 68 q 745 -15 806 -15 q 642 25 684 -15 q 600 129 600 66 q 641 234 600 191 q 745 277 683 277 q 849 234 808 277 q 890 129 890 191 m 390 129 q 348 26 390 68 q 245 -15 306 -15 q 142 25 184 -15 q 100 129 100 66 q 141 234 100 191 q 245 277 183 277 q 349 234 308 277 q 390 129 390 191 "},"?":{"x_min":9.71875,"x_max":680.5625,"ha":690,"o":"m 9 623 l 9 816 l 165 973 l 525 973 l 680 818 l 680 556 l 494 368 l 494 266 l 198 266 l 198 430 l 413 647 l 413 704 l 383 736 l 308 736 l 276 702 l 276 623 l 9 623 m 198 0 l 198 218 l 490 218 l 490 0 l 198 0 m 465 23 l 465 195 l 222 195 l 222 23 l 465 23 m 252 647 l 252 708 l 302 758 l 391 758 l 440 711 l 440 644 l 222 426 l 222 288 l 469 288 l 469 372 l 656 559 l 656 812 l 519 948 l 169 948 l 33 812 l 33 647 l 252 647 m 251 54 l 251 165 l 436 165 l 436 54 l 251 54 m 63 677 l 63 790 l 191 918 l 498 918 l 626 788 l 626 579 l 437 390 l 437 318 l 251 318 l 251 408 l 465 622 l 465 726 l 404 787 l 283 787 l 222 726 l 222 677 l 63 677 "},"H":{"x_min":9.71875,"x_max":850,"ha":908,"o":"m 9 0 l 9 218 l 68 218 l 68 752 l 9 752 l 9 972 l 393 972 l 393 752 l 334 752 l 334 619 l 525 619 l 525 752 l 465 752 l 465 972 l 850 972 l 850 752 l 793 752 l 793 218 l 850 218 l 850 0 l 465 0 l 465 218 l 525 218 l 525 380 l 334 380 l 334 218 l 393 218 l 393 0 l 9 0 m 369 23 l 369 195 l 311 195 l 311 404 l 548 404 l 548 195 l 490 195 l 490 23 l 827 23 l 827 195 l 768 195 l 768 776 l 827 776 l 827 948 l 490 948 l 490 776 l 548 776 l 548 595 l 311 595 l 311 776 l 369 776 l 369 948 l 33 948 l 33 776 l 90 776 l 90 195 l 33 195 l 33 23 l 369 23 m 63 54 l 63 165 l 120 165 l 120 806 l 63 806 l 63 918 l 340 918 l 340 806 l 281 806 l 281 566 l 577 566 l 577 806 l 519 806 l 519 918 l 797 918 l 797 806 l 738 806 l 738 165 l 797 165 l 797 54 l 519 54 l 519 165 l 577 165 l 577 434 l 281 434 l 281 165 l 340 165 l 340 54 l 63 54 "},"c":{"x_min":48.609375,"x_max":680.5625,"ha":729,"o":"m 48 127 l 48 737 l 176 865 l 552 865 l 680 737 l 680 598 l 519 598 l 519 693 l 461 752 l 268 752 l 209 693 l 209 170 l 268 112 l 461 112 l 519 170 l 519 259 l 680 259 l 680 127 l 552 0 l 176 0 l 48 127 "},"&":{"x_min":68.0625,"x_max":805.5625,"ha":874,"o":"m 68 218 l 68 444 l 109 486 l 68 527 l 68 755 l 222 909 l 327 909 l 327 972 l 547 972 l 547 909 l 650 909 l 805 754 l 805 593 l 538 593 l 538 661 l 508 691 l 365 691 l 334 661 l 334 615 l 365 584 l 486 584 l 486 387 l 365 387 l 334 356 l 334 312 l 366 280 l 506 280 l 538 312 l 538 359 l 805 359 l 805 218 l 650 62 l 547 62 l 547 0 l 327 0 l 327 62 l 223 62 l 68 218 m 226 86 l 351 86 l 351 23 l 523 23 l 523 86 l 645 86 l 783 223 l 783 336 l 562 336 l 562 306 l 512 256 l 361 256 l 311 306 l 311 362 l 359 411 l 462 411 l 462 556 l 362 556 l 311 608 l 311 665 l 361 715 l 518 715 l 562 670 l 562 616 l 781 616 l 781 750 l 645 886 l 523 886 l 523 948 l 351 948 l 351 886 l 227 886 l 90 748 l 90 533 l 137 486 l 90 438 l 90 222 l 226 86 m 120 245 l 120 418 l 187 484 l 120 551 l 120 727 l 250 855 l 370 855 l 370 929 l 502 929 l 502 855 l 623 855 l 752 726 l 752 647 l 593 647 l 593 687 l 534 745 l 341 745 l 280 684 l 280 591 l 341 530 l 433 530 l 433 441 l 341 441 l 280 380 l 280 287 l 341 227 l 531 227 l 593 287 l 593 306 l 752 306 l 752 244 l 625 116 l 502 116 l 502 43 l 370 43 l 370 116 l 250 116 l 120 245 "},"I":{"x_min":29.171875,"x_max":412.5,"ha":481,"o":"m 29 0 l 29 218 l 87 218 l 87 752 l 29 752 l 29 972 l 412 972 l 412 752 l 354 752 l 354 218 l 412 218 l 412 0 l 29 0 m 388 23 l 388 194 l 329 194 l 329 776 l 388 776 l 388 948 l 52 948 l 52 776 l 111 776 l 111 194 l 52 194 l 52 23 l 388 23 m 83 54 l 83 165 l 140 165 l 140 806 l 83 806 l 83 918 l 359 918 l 359 806 l 301 806 l 301 165 l 359 165 l 359 54 l 83 54 "},"•":{"x_min":38.890625,"x_max":427.78125,"ha":467,"o":"m 38 486 q 95 623 38 566 q 233 680 152 680 q 370 623 313 680 q 427 486 427 566 q 370 348 427 405 q 233 291 313 291 q 95 348 152 291 q 38 486 38 405 "},"G":{"x_min":48.609375,"x_max":786.109375,"ha":835,"o":"m 48 155 l 48 816 l 204 972 l 629 972 l 786 815 l 786 600 l 518 600 l 518 722 l 487 752 l 345 752 l 315 722 l 315 250 l 347 218 l 487 218 l 518 248 l 518 341 l 444 341 l 444 540 l 786 540 l 786 158 l 629 0 l 204 0 l 48 155 m 212 23 l 622 23 l 761 162 l 761 516 l 468 516 l 468 365 l 541 365 l 541 244 l 493 195 l 341 195 l 293 244 l 293 727 l 341 776 l 493 776 l 541 727 l 541 622 l 761 622 l 761 808 l 620 948 l 211 948 l 72 809 l 72 163 l 212 23 m 102 181 l 102 791 l 229 918 l 604 918 l 731 790 l 731 652 l 570 652 l 570 747 l 511 806 l 322 806 l 262 747 l 262 225 l 322 165 l 511 165 l 570 225 l 570 394 l 500 394 l 500 487 l 731 487 l 731 181 l 604 54 l 230 54 l 102 181 "},"(":{"x_min":68.0625,"x_max":501.390625,"ha":510,"o":"m 386 1098 l 501 1019 q 465 955 477 979 q 382 759 401 829 q 356 550 363 688 q 355 484 355 518 q 356 419 355 451 q 382 211 363 281 q 465 15 401 141 q 501 -50 481 -18 l 384 -130 q 318 -69 362 -111 q 120 201 176 77 q 68 484 68 320 q 122 770 68 648 q 318 1038 176 891 q 386 1098 340 1058 m 340 1026 q 147 768 204 890 q 90 484 90 645 q 134 211 90 318 q 315 -36 183 95 q 384 -104 338 -61 l 473 -40 q 440 15 462 -22 q 357 218 375 152 q 333 419 340 283 q 330 550 329 512 q 356 757 337 687 q 437 951 375 827 q 472 1011 451 979 l 386 1069 q 340 1026 373 1058 m 387 1029 l 434 995 q 405 941 425 980 q 327 755 345 825 q 302 551 309 686 q 302 413 300 481 q 369 93 312 212 q 434 -18 388 52 l 387 -59 q 345 -23 370 -45 q 120 480 120 179 q 126 584 120 530 q 345 994 152 819 q 387 1029 370 1016 "},"`":{"x_min":95.828125,"x_max":412.5,"ha":538,"o":"m 412 777 l 320 718 l 95 902 l 230 991 l 412 777 "},"U":{"x_min":40.28125,"x_max":895.828125,"ha":974,"o":"m 40 752 l 40 972 l 423 972 l 423 752 l 365 752 l 365 248 l 395 218 l 538 218 l 569 248 l 569 752 l 511 752 l 511 972 l 895 972 l 895 752 l 836 752 l 836 155 l 681 0 l 254 0 l 98 155 l 98 752 l 40 752 m 120 776 l 120 161 l 258 23 l 677 23 l 813 159 l 813 776 l 870 776 l 870 948 l 534 948 l 534 776 l 594 776 l 594 244 l 544 195 l 391 195 l 341 245 l 341 776 l 400 776 l 400 948 l 63 948 l 63 776 l 120 776 m 94 806 l 94 918 l 370 918 l 370 806 l 312 806 l 312 225 l 372 165 l 562 165 l 623 226 l 623 806 l 565 806 l 565 918 l 841 918 l 841 806 l 783 806 l 783 181 l 655 54 l 280 54 l 151 183 l 151 806 l 94 806 "},"◊":{"x_min":26.390625,"x_max":673.609375,"ha":714,"o":"m 673 544 l 394 0 l 305 0 l 26 544 l 304 1076 l 394 1076 l 673 544 m 584 544 l 350 995 l 113 544 l 350 80 l 584 544 "},"F":{"x_min":9.71875,"x_max":723.609375,"ha":763,"o":"m 9 0 l 9 218 l 68 218 l 68 752 l 9 752 l 9 972 l 723 972 l 723 713 l 505 713 l 505 752 l 334 752 l 334 595 l 373 595 l 373 633 l 593 633 l 593 338 l 373 338 l 373 376 l 334 376 l 334 218 l 447 218 l 447 0 l 9 0 m 423 23 l 423 195 l 311 195 l 311 400 l 397 400 l 397 361 l 569 361 l 569 609 l 397 609 l 397 570 l 311 570 l 311 776 l 527 776 l 527 737 l 700 737 l 700 948 l 33 948 l 33 776 l 90 776 l 90 195 l 33 195 l 33 23 l 423 23 m 63 54 l 63 165 l 120 165 l 120 806 l 63 806 l 63 918 l 670 918 l 670 768 l 558 768 l 558 806 l 281 806 l 281 541 l 427 541 l 427 580 l 538 580 l 538 391 l 427 391 l 427 430 l 281 430 l 281 165 l 393 165 l 393 54 l 63 54 "},"r":{"x_min":9.71875,"x_max":718.0625,"ha":728,"o":"m 9 0 l 9 112 l 68 112 l 68 752 l 9 752 l 9 865 l 531 865 l 659 737 l 659 537 l 572 450 l 659 362 l 659 112 l 718 112 l 718 0 l 500 0 l 500 333 l 438 394 l 227 394 l 227 112 l 286 112 l 286 0 l 9 0 m 438 505 l 500 565 l 500 693 l 438 752 l 227 752 l 227 505 l 438 505 "},":":{"x_min":9.71875,"x_max":258.328125,"ha":267,"o":"m 9 437 l 9 686 l 258 686 l 258 437 l 9 437 m 9 0 l 9 248 l 258 248 l 258 0 l 9 0 m 233 461 l 233 661 l 33 661 l 33 461 l 233 461 m 233 23 l 233 223 l 33 223 l 33 23 l 233 23 m 63 54 l 63 194 l 204 194 l 204 54 l 63 54 m 63 491 l 63 631 l 204 631 l 204 491 l 63 491 "},"x":{"x_min":9.71875,"x_max":968.0625,"ha":978,"o":"m 9 0 l 9 112 l 70 112 l 391 431 l 70 752 l 9 752 l 9 865 l 363 865 l 363 752 l 277 752 l 495 536 l 711 752 l 626 752 l 626 865 l 968 865 l 968 752 l 920 752 l 600 431 l 920 112 l 968 112 l 968 0 l 626 0 l 626 112 l 711 112 l 495 327 l 277 112 l 363 112 l 363 0 l 9 0 "},"*":{"x_min":19.4375,"x_max":543.0625,"ha":563,"o":"m 281 644 l 179 493 l 77 563 l 187 702 l 19 762 l 58 869 l 216 812 l 216 987 l 347 987 l 347 812 l 506 869 l 543 761 l 376 701 l 484 563 l 383 493 l 281 644 m 220 711 l 105 568 l 173 523 l 281 679 l 387 519 l 458 569 l 345 711 l 518 772 l 491 844 q 326 783 420 818 l 326 963 l 238 963 l 238 781 l 72 844 l 45 773 l 220 711 m 69 787 l 80 820 l 258 754 l 258 948 l 306 948 l 306 754 l 481 820 l 495 787 l 313 720 l 431 572 l 393 548 l 281 704 l 169 548 l 131 572 l 250 720 l 69 787 "},"†":{"x_min":25,"x_max":776.390625,"ha":803,"o":"m 515 548 l 515 -269 l 286 -269 l 286 548 l 25 548 l 25 752 l 286 752 l 286 1045 l 515 1045 l 515 752 l 776 752 l 776 548 l 515 548 "},"V":{"x_min":20.828125,"x_max":965.28125,"ha":1033,"o":"m 20 752 l 20 972 l 412 972 l 412 752 l 379 752 l 487 429 l 595 752 l 563 752 l 563 972 l 965 972 l 965 752 l 879 752 l 701 218 l 751 218 l 751 0 l 233 0 l 233 218 l 276 218 l 98 752 l 20 752 m 105 776 l 302 195 l 256 195 l 256 23 l 727 23 l 727 195 l 673 195 l 872 776 l 943 776 l 943 948 l 587 948 l 587 776 l 623 776 l 487 384 l 352 776 l 388 776 l 388 948 l 44 948 l 44 776 l 105 776 m 75 806 l 75 918 l 359 918 l 359 806 l 305 806 l 487 258 l 670 806 l 618 806 l 618 918 l 912 918 l 912 806 l 841 806 l 627 165 l 697 165 l 697 54 l 286 54 l 286 165 l 348 165 l 134 806 l 75 806 "},"h":{"x_min":9.71875,"x_max":744.453125,"ha":753,"o":"m 9 0 l 9 112 l 68 112 l 68 752 l 9 752 l 9 865 l 286 865 l 286 752 l 227 752 l 227 512 l 525 512 l 525 752 l 465 752 l 465 865 l 744 865 l 744 752 l 684 752 l 684 112 l 744 112 l 744 0 l 465 0 l 465 112 l 525 112 l 525 380 l 227 380 l 227 112 l 286 112 l 286 0 l 9 0 "},"0":{"x_min":-69.4375,"x_max":669.453125,"ha":836,"o":"m -69 155 l -69 816 l 86 972 l 513 972 l 669 816 l 669 155 l 513 0 l 86 0 l -69 155 m 97 23 l 502 23 l 645 166 l 645 805 l 502 948 l 97 948 l -45 805 l -45 166 l 97 23 m -15 181 l -15 790 l 112 918 l 486 918 l 616 788 l 616 181 l 488 54 l 112 54 l -15 181 m 206 165 l 394 165 l 454 225 l 454 747 l 397 804 l 204 804 l 147 747 l 147 225 l 206 165 m 175 244 l 175 727 l 223 776 l 376 776 l 425 727 l 425 244 l 376 195 l 223 195 l 175 244 m 229 218 l 370 218 l 401 248 l 401 722 l 370 752 l 227 752 l 197 722 l 197 250 l 229 218 "},".":{"x_min":9.71875,"x_max":258.328125,"ha":267,"o":"m 9 0 l 9 248 l 258 248 l 258 0 l 9 0 m 233 23 l 233 223 l 33 223 l 33 23 l 233 23 m 63 54 l 63 194 l 204 194 l 204 54 l 63 54 "},"”":{"x_min":9.71875,"x_max":536.109375,"ha":551,"o":"m 258 972 l 258 723 l 83 547 l 83 723 l 9 723 l 9 972 l 258 972 m 34 947 l 34 747 l 106 747 l 106 601 l 234 729 l 234 947 l 34 947 m 204 918 l 204 748 l 136 679 l 136 777 l 63 777 l 63 918 l 204 918 m 536 972 l 536 723 l 361 548 l 361 723 l 287 723 l 287 972 l 536 972 m 312 947 l 312 747 l 384 747 l 384 600 l 512 729 l 512 947 l 312 947 m 481 918 l 481 748 l 413 680 l 413 777 l 341 777 l 341 918 l 481 918 "},"@":{"x_min":48.609375,"x_max":888.890625,"ha":939,"o":"m 273 280 l 331 584 l 408 648 l 595 648 l 648 584 l 588 280 l 609 261 l 727 261 l 727 693 l 669 752 l 268 752 l 209 693 l 209 170 l 268 112 l 669 112 l 761 0 l 176 0 l 48 127 l 48 737 l 176 865 l 761 865 l 888 737 l 888 216 l 586 216 l 555 251 l 513 216 l 325 216 l 273 280 m 381 272 l 479 272 l 513 301 l 563 562 l 540 593 l 443 593 l 408 562 l 358 301 l 381 272 "},"f":{"x_min":9.71875,"x_max":616.671875,"ha":626,"o":"m 9 0 l 9 112 l 68 112 l 68 752 l 9 752 l 9 865 l 616 865 l 616 713 l 505 713 l 505 752 l 227 752 l 227 487 l 373 487 l 373 526 l 486 526 l 486 338 l 373 338 l 373 376 l 227 376 l 227 112 l 340 112 l 340 0 l 9 0 "},";":{"x_min":9.71875,"x_max":258.328125,"ha":267,"o":"m 9 0 l 9 248 l 258 248 l 258 0 l 80 -179 l 80 0 l 9 0 m 9 437 l 9 686 l 258 686 l 258 437 l 9 437 m 233 461 l 233 661 l 33 661 l 33 461 l 233 461 m 104 23 l 104 -123 l 233 5 l 233 223 l 33 223 l 33 23 l 104 23 m 63 54 l 63 194 l 204 194 l 204 25 l 134 -44 l 134 54 l 63 54 m 63 491 l 63 631 l 204 631 l 204 491 l 63 491 "},"“":{"x_min":9.71875,"x_max":536.109375,"ha":267,"o":"m 287 566 l 287 815 l 462 988 l 462 815 l 536 815 l 536 566 l 287 566 m 511 591 l 511 791 l 438 791 l 438 937 l 311 809 l 311 591 l 511 591 m 341 620 l 341 790 l 409 858 l 409 761 l 481 761 l 481 620 l 341 620 m 9 566 l 9 815 l 184 990 l 184 815 l 258 815 l 258 566 l 9 566 m 233 591 l 233 791 l 161 791 l 161 936 l 33 809 l 33 591 l 233 591 m 63 620 l 63 790 l 131 858 l 131 761 l 204 761 l 204 620 l 63 620 "},"i":{"x_min":9.71875,"x_max":286.109375,"ha":296,"o":"m 9 0 l 9 112 l 68 112 l 68 752 l 9 752 l 9 865 l 286 865 l 286 752 l 227 752 l 227 112 l 286 112 l 286 0 l 9 0 "},"6":{"x_min":48.609375,"x_max":787.5,"ha":836,"o":"m 48 155 l 48 816 l 204 972 l 631 972 l 787 816 l 787 656 l 519 656 l 519 722 l 488 752 l 345 752 l 315 722 l 315 583 l 631 583 l 787 427 l 787 155 l 631 0 l 204 0 l 48 155 m 209 23 l 626 23 l 763 161 l 763 422 l 626 559 l 293 559 l 293 727 l 341 776 l 494 776 l 543 727 l 543 681 l 763 681 l 763 811 l 626 948 l 209 948 l 72 811 l 72 161 l 209 23 m 102 181 l 102 790 l 230 918 l 606 918 l 734 790 l 734 711 l 573 711 l 573 747 l 513 806 l 322 806 l 262 747 l 262 529 l 605 529 l 734 400 l 734 183 l 605 54 l 230 54 l 102 181 m 322 165 l 513 165 l 573 225 l 573 358 l 513 418 l 322 418 l 262 358 l 262 225 l 322 165 m 293 244 l 293 338 l 341 387 l 494 387 l 543 338 l 543 244 l 494 195 l 341 195 l 293 244 m 347 218 l 488 218 l 519 248 l 519 333 l 488 363 l 345 363 l 315 333 l 315 250 l 347 218 "},"A":{"x_min":29.171875,"x_max":925,"ha":965,"o":"m 29 0 l 29 218 l 87 218 l 265 752 l 222 752 l 222 972 l 738 972 l 738 752 l 690 752 l 868 218 l 925 218 l 925 0 l 552 0 l 552 218 l 586 218 l 570 263 l 384 263 l 368 218 l 401 218 l 401 0 l 29 0 m 377 23 l 377 195 l 341 195 l 363 286 l 591 286 l 612 195 l 576 195 l 576 23 l 902 23 l 902 195 l 847 195 l 661 776 l 715 776 l 715 948 l 245 948 l 245 776 l 293 776 l 106 195 l 52 195 l 52 23 l 377 23 m 83 54 l 83 165 l 125 165 l 337 806 l 276 806 l 276 918 l 686 918 l 686 806 l 618 806 l 830 165 l 872 165 l 872 54 l 606 54 l 606 165 l 659 165 l 609 316 l 344 316 l 294 165 l 347 165 l 347 54 l 83 54 m 581 397 l 477 713 l 370 397 l 581 397 m 418 425 l 477 618 l 536 425 l 418 425 m 509 450 l 477 543 l 445 450 l 509 450 "},"‘":{"x_min":9.71875,"x_max":258.328125,"ha":267,"o":"m 9 566 l 9 815 l 184 990 l 184 815 l 258 815 l 258 566 l 9 566 m 233 591 l 233 791 l 161 791 l 161 936 l 33 809 l 33 591 l 233 591 m 63 620 l 63 790 l 131 858 l 131 761 l 204 761 l 204 620 l 63 620 "},"n":{"x_min":9.71875,"x_max":811.109375,"ha":821,"o":"m 9 0 l 9 112 l 68 112 l 68 752 l 9 752 l 9 865 l 233 865 l 593 266 l 593 752 l 534 752 l 534 865 l 811 865 l 811 752 l 752 752 l 752 112 l 811 112 l 811 0 l 580 0 l 227 586 l 227 112 l 286 112 l 286 0 l 9 0 "},"O":{"x_min":58.328125,"x_max":797.21875,"ha":846,"o":"m 58 155 l 58 816 l 213 972 l 641 972 l 797 816 l 797 155 l 641 0 l 213 0 l 58 155 m 222 25 l 634 25 l 773 163 l 773 806 l 631 948 l 222 948 l 83 809 l 83 163 l 222 25 m 112 181 l 112 790 l 240 918 l 616 918 l 744 790 l 744 181 l 616 54 l 240 54 l 112 181 m 331 165 l 523 165 l 583 225 l 583 745 l 522 806 l 331 806 l 272 747 l 272 225 l 331 165 m 301 243 l 301 729 l 350 777 l 505 777 l 554 729 l 554 243 l 505 194 l 350 194 l 301 243 m 356 218 l 498 218 l 529 248 l 529 722 l 498 752 l 355 752 l 325 722 l 325 250 l 356 218 "},"3":{"x_min":48.609375,"x_max":787.5,"ha":836,"o":"m 48 155 l 48 297 l 315 297 l 315 250 l 347 218 l 488 218 l 519 248 l 519 343 l 488 373 l 368 373 l 368 598 l 491 598 l 519 627 l 519 722 l 488 752 l 345 752 l 315 722 l 315 655 l 48 655 l 48 816 l 204 972 l 631 972 l 787 816 l 787 527 l 745 486 l 787 444 l 787 155 l 631 0 l 204 0 l 48 155 m 209 23 l 626 23 l 763 161 l 763 438 l 716 486 l 763 533 l 763 806 l 622 948 l 212 948 l 72 808 l 72 677 l 293 677 l 293 727 l 341 776 l 494 776 l 541 729 l 541 620 l 495 575 l 391 575 l 391 397 l 495 397 l 543 348 l 543 244 l 494 195 l 341 195 l 293 244 l 293 273 l 72 273 l 72 161 l 209 23 m 104 181 l 104 244 l 262 244 l 262 225 l 322 165 l 512 165 l 573 226 l 573 366 l 512 427 l 420 427 l 420 544 l 512 544 l 573 605 l 573 745 l 512 806 l 322 806 l 262 747 l 262 708 l 102 708 l 102 788 l 231 918 l 606 918 l 734 790 l 734 551 l 669 486 l 734 420 l 734 181 l 608 55 l 230 55 l 104 181 "},"]":{"x_min":19.4375,"x_max":388.890625,"ha":401,"o":"m 150 119 l 19 119 l 19 -98 l 388 -98 l 388 1077 l 19 1077 l 19 859 l 150 859 l 150 119 m 365 -72 l 43 -72 l 43 94 l 173 94 l 173 884 l 43 884 l 43 1052 l 365 1052 l 365 -72 m 202 66 l 73 66 l 73 -44 l 334 -44 l 334 1023 l 73 1023 l 73 912 l 202 912 l 202 66 "},"m":{"x_min":9.71875,"x_max":977.78125,"ha":988,"o":"m 9 0 l 9 112 l 68 112 l 68 752 l 9 752 l 9 865 l 226 865 l 494 419 l 759 865 l 977 865 l 977 752 l 919 752 l 919 112 l 977 112 l 977 0 l 701 0 l 701 112 l 758 112 l 758 600 l 494 158 l 227 600 l 227 112 l 286 112 l 286 0 l 9 0 "},"9":{"x_min":48.609375,"x_max":787.5,"ha":836,"o":"m 48 155 l 48 313 l 315 313 l 315 250 l 347 218 l 488 218 l 519 248 l 519 388 l 204 388 l 48 544 l 48 816 l 204 972 l 631 972 l 787 816 l 787 155 l 631 0 l 204 0 l 48 155 m 209 23 l 626 23 l 763 161 l 763 811 l 626 948 l 209 948 l 72 811 l 72 550 l 209 412 l 543 412 l 543 244 l 494 195 l 341 195 l 293 244 l 293 290 l 72 290 l 72 161 l 209 23 m 102 180 l 102 261 l 262 261 l 262 225 l 322 165 l 513 165 l 573 225 l 573 441 l 230 441 l 102 569 l 102 790 l 230 918 l 605 918 l 734 790 l 734 180 l 608 54 l 230 54 l 102 180 m 322 554 l 512 554 l 573 615 l 573 747 l 512 805 l 322 805 l 262 747 l 262 613 l 322 554 m 293 633 l 293 727 l 341 776 l 494 776 l 543 727 l 543 633 l 494 584 l 341 584 l 293 633 m 347 606 l 488 606 l 519 638 l 519 722 l 488 752 l 345 752 l 315 722 l 315 638 l 347 606 "},"l":{"x_min":9.71875,"x_max":622.21875,"ha":632,"o":"m 9 0 l 9 112 l 68 112 l 68 752 l 9 752 l 9 865 l 286 865 l 286 752 l 227 752 l 227 112 l 509 112 l 509 169 l 622 169 l 622 0 l 9 0 "},"8":{"x_min":50,"x_max":786.109375,"ha":836,"o":"m 50 155 l 50 425 l 111 486 l 50 547 l 50 816 l 205 972 l 630 972 l 786 816 l 786 547 l 725 486 l 786 425 l 786 155 l 630 0 l 205 0 l 50 155 m 211 23 l 625 23 l 762 161 l 762 419 l 695 486 l 762 552 l 762 811 l 625 948 l 211 948 l 73 811 l 73 552 l 138 486 l 73 419 l 73 161 l 211 23 m 104 181 l 104 397 l 191 486 l 104 575 l 104 790 l 231 918 l 604 918 l 731 790 l 731 575 l 644 486 l 731 397 l 731 181 l 604 54 l 231 54 l 104 181 m 336 165 l 498 165 l 558 225 l 558 369 l 498 429 l 336 429 l 276 369 l 276 225 l 336 165 m 336 543 l 500 543 l 558 602 l 558 747 l 500 806 l 336 806 l 276 747 l 276 602 l 336 543 m 305 244 l 305 351 l 355 400 l 480 400 l 529 351 l 529 244 l 480 195 l 354 195 l 305 244 m 305 620 l 305 727 l 355 776 l 480 776 l 529 727 l 529 620 l 480 572 l 355 572 l 305 620 m 361 595 l 475 595 l 506 626 l 506 722 l 475 752 l 361 752 l 329 722 l 329 626 l 361 595 m 361 218 l 475 218 l 506 250 l 506 345 l 475 376 l 361 376 l 329 345 l 329 250 l 361 218 "},"p":{"x_min":9.71875,"x_max":659.71875,"ha":669,"o":"m 9 0 l 9 112 l 68 112 l 68 752 l 9 752 l 9 865 l 531 865 l 659 737 l 659 497 l 531 368 l 227 368 l 227 112 l 286 112 l 286 0 l 9 0 m 438 480 l 500 540 l 500 693 l 438 752 l 227 752 l 227 480 l 438 480 "},"4":{"x_min":51.390625,"x_max":786.109375,"ha":838,"o":"m 51 291 l 51 576 l 447 972 l 684 972 l 684 509 l 786 509 l 786 291 l 684 291 l 684 218 l 743 218 l 743 0 l 359 0 l 359 218 l 416 218 l 416 291 l 51 291 m 440 315 l 440 195 l 381 195 l 381 23 l 719 23 l 719 195 l 659 195 l 659 315 l 761 315 l 761 487 l 659 487 l 659 948 l 451 948 l 75 572 l 75 315 l 440 315 m 105 345 l 105 554 l 469 918 l 630 918 l 630 456 l 731 456 l 731 345 l 630 345 l 630 165 l 688 165 l 688 54 l 412 54 l 412 165 l 469 165 l 469 345 l 105 345 m 469 456 l 469 709 l 265 505 l 265 456 l 469 456 m 295 487 l 440 631 l 440 487 l 295 487 m 416 509 l 416 579 l 347 509 l 416 509 "},"‡":{"x_min":25,"x_max":776.390625,"ha":819,"o":"m 515 11 l 515 -269 l 286 -269 l 286 11 l 25 11 l 25 215 l 286 215 l 286 559 l 25 559 l 25 763 l 286 763 l 286 1045 l 515 1045 l 515 763 l 776 763 l 776 559 l 515 559 l 515 215 l 776 215 l 776 11 l 515 11 "},"R":{"x_min":19.4375,"x_max":834.71875,"ha":883,"o":"m 19 0 l 19 218 l 77 218 l 77 752 l 19 752 l 19 972 l 620 972 l 776 816 l 776 566 l 712 504 l 776 440 l 776 218 l 834 218 l 834 0 l 509 0 l 509 365 l 479 394 l 344 394 l 344 218 l 402 218 l 402 0 l 19 0 m 379 23 l 379 195 l 320 195 l 320 418 l 490 418 l 533 375 l 533 23 l 809 23 l 809 195 l 752 195 l 752 430 l 679 505 l 752 580 l 752 806 l 611 948 l 43 948 l 43 776 l 100 776 l 100 195 l 43 195 l 43 23 l 379 23 m 73 54 l 73 165 l 130 165 l 130 806 l 73 806 l 73 918 l 595 918 l 722 790 l 722 594 l 634 505 l 722 416 l 722 165 l 780 165 l 780 54 l 562 54 l 562 387 l 502 447 l 291 447 l 291 165 l 350 165 l 350 54 l 73 54 m 501 558 l 562 619 l 562 748 l 502 806 l 291 806 l 291 558 l 501 558 m 320 588 l 320 776 l 483 776 l 533 726 l 533 637 l 483 588 l 320 588 m 477 612 l 509 643 l 509 720 l 477 752 l 344 752 l 344 612 l 477 612 "},"o":{"x_min":48.609375,"x_max":680.5625,"ha":729,"o":"m 48 127 l 48 737 l 176 865 l 552 865 l 680 737 l 680 127 l 552 0 l 176 0 l 48 127 m 268 112 l 461 112 l 519 170 l 519 693 l 461 752 l 268 752 l 209 693 l 209 170 l 268 112 "},"5":{"x_min":48.609375,"x_max":787.5,"ha":836,"o":"m 48 155 l 48 327 l 315 327 l 315 250 l 347 218 l 488 218 l 519 248 l 519 419 l 488 450 l 204 450 l 48 605 l 48 972 l 787 972 l 787 752 l 315 752 l 315 698 l 347 666 l 640 666 l 787 519 l 787 155 l 631 0 l 204 0 l 48 155 m 209 23 l 626 23 l 763 161 l 763 515 l 636 643 l 343 643 l 293 693 l 293 776 l 763 776 l 763 948 l 72 948 l 72 611 l 209 473 l 494 473 l 543 426 l 543 244 l 494 195 l 341 195 l 293 244 l 293 304 l 72 304 l 72 161 l 209 23 m 102 181 l 102 275 l 262 275 l 262 225 l 322 165 l 512 165 l 573 226 l 573 443 l 513 502 l 230 502 l 102 630 l 102 918 l 734 918 l 734 806 l 262 806 l 262 673 l 323 612 l 616 612 l 734 494 l 734 183 l 605 54 l 230 54 l 102 181 "}}}
